<?xml version="1.0" encoding="UTF-8" standalone="no"?>
<!-- Created with Inkscape (http://www.inkscape.org/) -->

<svg
   xmlns:dc="http://purl.org/dc/elements/1.1/"
   xmlns:cc="http://creativecommons.org/ns#"
   xmlns:rdf="http://www.w3.org/1999/02/22-rdf-syntax-ns#"
   xmlns:svg="http://www.w3.org/2000/svg"
   xmlns="http://www.w3.org/2000/svg"
   xmlns:sodipodi="http://sodipodi.sourceforge.net/DTD/sodipodi-0.dtd"
   xmlns:inkscape="http://www.inkscape.org/namespaces/inkscape"
   width="744.09448819"
   height="1052.3622047"
   id="svg2"
   version="1.1"
   inkscape:version="0.48.2 r9819"
   sodipodi:docname="New document 1">
  <defs
     id="defs4" />
  <sodipodi:namedview
     id="base"
     pagecolor="#ffffff"
     bordercolor="#666666"
     borderopacity="1.0"
     inkscape:pageopacity="0.0"
     inkscape:pageshadow="2"
     inkscape:zoom="0.98994949"
     inkscape:cx="539.4458"
     inkscape:cy="690.01144"
     inkscape:document-units="px"
     inkscape:current-layer="layer1"
     showgrid="false"
     inkscape:window-width="1920"
     inkscape:window-height="1027"
     inkscape:window-x="1912"
     inkscape:window-y="-8"
     inkscape:window-maximized="1" />
  <metadata
     id="metadata7">
    <rdf:RDF>
      <cc:Work
         rdf:about="">
        <dc:format>image/svg+xml</dc:format>
        <dc:type
           rdf:resource="http://purl.org/dc/dcmitype/StillImage" />
        <dc:title></dc:title>
      </cc:Work>
    </rdf:RDF>
  </metadata>
  <g
     inkscape:label="Layer 1"
     inkscape:groupmode="layer"
     id="layer1">
    <g
       transform="matrix(1.25,0,0,-1.25,90.729473,484.92032)"
       inkscape:label="logo38"
       id="g2993">
      <g
         transform="translate(312.85,246.7)"
         id="g2995">
        <path
           id="path2997"
           style="fill:none;stroke:#000000;stroke-width:15;stroke-linecap:square;stroke-linejoin:miter;stroke-miterlimit:3;stroke-opacity:1;stroke-dasharray:none"
           d="m 0,0 11.65,11.7 m 6.35,-58.2 19.65,0 M 12.8,-21.2 39.65,-9.95"
           inkscape:connector-curvature="0" />
      </g>
      <g
         transform="translate(306.55,171.65)"
         id="g2999">
        <path
           id="path3001"
           style="fill:none;stroke:#000000;stroke-width:17.95000076;stroke-linecap:square;stroke-linejoin:round;stroke-miterlimit:4;stroke-opacity:1;stroke-dasharray:none"
           d="m 0,0 -109,0 78,78"
           inkscape:connector-curvature="0" />
      </g>
      <g
         transform="translate(244.4,164.2)"
         id="g3003">
        <path
           id="path3005"
           style="fill:#000000;fill-opacity:1;fill-rule:nonzero;stroke:none"
           d="m 0,0 -0.05,-0.3 -0.2,-2.7 -0.05,-0.25 0,-0.2 -0.4,-2.65 0,-0.25 -0.5,-2.7 -2.45,-8.95 -1.75,-4.55 -0.05,-0.1 0.1,-0.1 5.35,2.95 5.9,3.95 6.7,5.5 L 23.2,-0.2 1.05,10.65 0,0 z"
           inkscape:connector-curvature="0" />
      </g>
    </g>
    <path
       id="path3015"
       d="m 257.78428,306.58739 c 1.28223,-0.57363 2.19331,-1.34972 3.81298,-0.9448 1.68715,0.40491 1.61967,1.34971 2.46321,2.63195 0.77607,1.14725 1.8221,1.61965 2.86813,2.56445 1.0798,1.01229 1.0798,1.92334 1.92335,3.17184 0.8436,1.21474 2.09206,2.05831 3.2731,3.03685 0.40492,0.37118 1.14722,0.77609 1.48466,1.07978 0.2362,0.26994 0.57364,0.2362 0.80984,0.43865 0.30367,0.30369 0.0337,0.91106 0.23619,1.07978 1.28223,1.28223 2.0583,0.84357 3.57678,1.01229 1.34971,0.13497 2.46322,1.01228 4.01541,0.16871 0.10118,-0.91106 0.0337,-1.82212 0.10118,-2.76692 1.24852,-0.30369 1.78839,0.30369 2.80066,0.57363 1.01232,0.26994 2.46327,0 3.47553,0.30369 1.5522,0.50614 3.57678,4.2516 5.63508,2.49697 1.68715,-1.48469 -1.48472,-4.65652 1.11351,-6.20869 1.65337,-1.01229 1.38347,0.16872 2.15954,1.21474 0.50616,0.7086 1.38347,1.38346 1.65337,2.15955 2.8682,0.13497 2.69947,1.01228 4.08289,2.90189 0.0337,0.0338 0.8436,0.30368 1.01232,0.53988 0.37115,0.40492 0.16872,0.87732 0.43863,1.38346 0.67488,1.01229 1.21475,1.21475 1.3497,2.49698 0.13501,1.14725 0,1.34971 0.23626,2.29451 0.10118,0.30369 0.64111,0.50615 0.70859,0.84358 0.16872,0.53988 -0.10125,1.34971 0,1.92334 0.23619,1.6534 1.24846,4.2516 3.44177,2.80066 0.0337,-0.16872 0.10124,-0.37118 0.13495,-0.53989 0.80983,-0.10123 1.0798,0.0338 1.24852,0.84357 1.14721,0.37118 4.2516,-1.38345 4.11659,0.97855 0.30373,0.16871 1.14727,0.30369 1.48472,0.30369 0.23619,-1.07978 1.14727,-1.01229 1.92334,-0.64112 0.37115,-2.22703 1.92334,-1.4172 2.36197,0.30369 1.88963,-1.01229 2.05835,0.13497 3.47553,1.55217 1.01227,1.01229 3.44177,1.51843 3.17187,3.20558 1.3497,-0.16872 1.55213,-1.65341 3.408,-1.14726 0.40491,1.4172 2.56445,2.5982 3.81297,3.0706 0.40492,-1.4172 3.71168,-1.82212 5.06144,-2.56446 0.57358,-0.30369 0.26991,-0.7086 1.01226,-0.87732 0.50617,-0.13497 1.38348,-0.0338 1.92335,0 1.21475,0.10123 2.02458,0.40492 3.13809,0.0338 -0.10124,2.49698 3.98164,8.06455 6.37738,7.42344 1.55219,-0.40492 4.08294,-1.92335 4.69028,-3.40804 0.50617,-1.14726 -0.13495,-1.61966 1.01227,-2.46323 1.01232,-0.70859 1.38347,-0.43865 2.46327,-0.26994 1.88958,0.30369 3.44177,1.24849 5.50006,1.21475 0.94479,0 2.69941,0.67486 3.81298,0.77608 1.01226,0.10123 2.56446,0.30369 3.47548,-0.30368 0.70859,-0.50615 -0.40492,-2.46323 0.70859,-2.63195 1.14727,-0.16871 1.51848,0.9448 1.82216,1.8896 0.77606,2.19329 -1.48472,3.44177 -0.87731,5.63506 0.87731,0.23621 3.00308,1.24849 0.94478,1.68715 0.80984,0.9448 1.41718,2.362 2.49698,2.80066 1.51843,0.57363 4.08289,-0.10123 5.66879,0.0338 0.43868,1.14726 1.3497,0.57362 1.65344,1.68714 0.67482,-1.6534 -0.0337,1.48469 -2.15961,3.00312 3.40807,1.4172 2.19331,2.19329 -0.0337,2.5982 0.26996,1.11352 2.69941,1.61966 3.74544,2.19329 1.41724,0.77609 2.59822,2.09206 4.42032,1.82211 1.5522,-0.23619 2.86813,-1.21474 3.47554,-2.46323 0.16872,-0.37117 -0.2362,-0.84357 0.0337,-1.21474 0.37121,-0.43866 1.01232,-0.13497 1.21475,-0.37117 0.53993,-0.64111 1.38347,-0.91106 0.67488,-1.82212 1.48466,-0.77608 2.49698,-0.67486 3.67797,-1.75463 1.1135,-1.07977 1.01226,-2.56446 2.63193,-2.76692 3.47553,-0.50614 4.92648,3.30681 5.12891,6.00624 1.21475,0.50614 2.36203,0.9448 3.7455,0.67486 1.68715,-0.30369 1.48466,-1.6534 2.86813,-1.92335 0.70859,-0.13497 2.49698,1.01229 2.76689,1.61966 0.64111,1.38346 -0.53987,1.78838 -0.91102,3.13809 -0.91108,3.71172 3.03685,2.90189 5.19639,2.32826 1.38347,-0.40491 1.8221,-0.77609 2.46321,-1.95709 0.26997,-0.50614 1.11357,-3.44177 1.65344,-0.97854 1.65338,-2.19329 2.02459,1.61965 3.98164,-0.0338 1.61967,-1.28223 -0.26991,-4.55529 3.00314,-2.86814 1.38347,0.7086 3.47548,3.34054 2.56446,4.92646 -0.26997,0.43865 -1.8221,0.7086 -2.22702,1.24848 -0.80983,1.01229 -0.50616,1.24849 -0.30373,2.42949 0.0337,0.30369 0.53993,0.67486 0.57364,1.01229 0.0337,0.57363 -0.5061,1.11352 -0.37115,1.61966 0.30367,1.01229 1.01226,0.9448 1.8221,1.6534 1.41718,1.24849 3.03685,3.13809 4.82524,0.87731 0.37115,-0.43865 0.91108,-2.09206 0.91108,-2.5982 -0.0337,-1.21474 -1.11351,-1.48469 -1.28223,-2.362 -0.40492,-2.05832 3.30675,-0.7086 3.88039,-2.15954 -0.91102,-0.26995 -2.22701,-1.61967 -3.13809,-1.78838 -0.0337,-0.53988 0.23619,-1.55217 0.91108,-1.78837 1.3497,-0.50615 1.0798,0.84357 1.61967,1.24849 1.75462,1.34971 1.75462,0.53988 2.9356,-1.21475 0.77613,-1.11351 1.88964,-1.95709 1.51843,-3.57674 -0.40492,-1.82212 -1.88958,-1.82212 -1.55214,-4.0829 1.68715,-0.50614 1.51843,1.21475 2.22702,2.15955 0.97855,-0.67486 1.3497,-2.02457 2.73318,-2.15955 0.57363,1.41721 1.61967,0.13498 2.15954,1.51843 0.43868,1.21475 0.53987,5.90501 1.41718,6.64735 l 1.92334,0.64112 c 0.53993,-0.53989 0.80983,-1.38346 0.67488,-2.19329 3.47554,-0.37117 3.00315,4.35283 5.66879,4.25161 3.98169,-0.13498 3.88045,-4.42033 4.21789,-7.42344 1.34971,0.0337 1.38347,1.07977 2.22702,1.48469 1.01226,0.53988 2.15954,0.30368 3.34052,0.43865 0.80983,2.32826 -6.03993,3.57675 -0.37115,5.39887 0.87731,0.30368 0.67488,0.26994 1.65338,0.26994 0.80985,0 1.24851,-0.53989 2.22705,-0.10123 1.21475,0.53989 1.78838,1.75463 2.29452,2.86815 2.56446,0.23619 3.98166,-0.80983 5.73629,1.24848 1.11352,1.28223 3.88043,3.34055 4.11663,5.09518 3.67798,1.07977 1.95709,-4.42032 3.17184,-5.60132 1.6534,-1.55217 4.69026,2.46323 6.8498,1.11352 0.57363,-1.41721 2.09206,-2.19329 1.61966,-4.01541 -1.6534,-0.50614 -0.43866,-1.55217 0.64112,-1.01229 -0.13498,-0.84357 0.10123,-1.78837 0.9448,-2.15954 0.57362,2.09206 3.3068,1.14726 3.00312,-0.9448 2.05831,0.43866 2.56445,1.75463 4.9602,0.53989 0.0338,-0.53989 0.40491,-0.97855 0.43866,-1.51843 0.13497,0.23619 0.50614,0.37117 0.64111,0.91105 1.21475,0.26995 2.56446,-0.70859 3.71172,-0.9448 -0.64112,-3.3068 6.34366,2.05832 7.59215,1.92335 -0.37117,-2.15955 1.48469,-1.28223 2.49697,-1.14726 1.61967,0.26994 1.75464,0.40491 2.02458,-1.6534 0.16871,-1.28223 -0.50615,-2.46324 1.8896,-1.92335 0.9448,0.23621 3.30681,1.92335 3.20557,-0.57363 1.07978,-0.37117 1.88961,0.26995 2.80066,-0.0338 1.28224,-0.40492 0.80983,-1.38346 1.82212,-2.02457 2.86815,-1.78838 3.20558,2.19329 2.66569,3.84669 0.37117,0.13497 0.80983,0.10122 1.14726,0 0.10123,-0.91106 0.77609,-1.14726 1.61965,-0.84357 0,0.67485 0.13498,1.21474 0.40492,1.78837 1.24849,0.37117 1.11352,-0.77609 1.92334,-0.84358 1.07978,-0.10122 1.48469,0.40492 2.46323,0.57363 1.48469,0.2362 4.52155,0.50614 5.66881,-0.0338 0,-0.26994 0.10123,-0.57363 0.10123,-0.84357 0.84357,-0.0338 2.86815,0.53989 3.44178,0.26994 1.28223,-0.57363 0.64111,-1.82212 1.34971,-2.86814 0.2362,0.16871 0.64112,0.13497 0.80983,0.23619 0.67486,-1.34971 0.53989,-2.02457 0.43866,-3.40803 0.80983,-0.13497 0.97854,-0.30368 1.24848,-0.9448 0.30369,-0.0337 0.53989,-0.0337 0.84358,0 0.50614,3.03686 5.39886,-0.16872 4.85898,3.40804 1.34971,0.37117 2.36199,-0.57364 3.71171,-0.23621 0.16872,0.67486 0.40492,1.24849 0.64112,1.78837 -0.80983,-0.0337 -1.01229,0.16872 -1.51843,0.64113 0.53988,0.40491 1.14726,0.53988 1.82212,0.37116 0.0337,-0.37116 0.30368,-0.64111 0.37116,-0.91105 1.55218,0.64111 1.21475,2.15954 3.17184,2.49697 1.01228,0.16872 3.3068,-0.57363 3.20557,1.55217 0.26995,0 0.57363,0.10123 0.84358,0.10123 0.26994,0.84358 0.43865,1.68714 0.10122,2.46323 1.14726,0 1.34972,-1.92334 2.19329,-1.8896 1.28223,0.0338 -0.7086,2.56446 -0.26994,3.44177 0.26994,0.50615 1.92334,0.94481 2.42949,1.41721 0.97854,0.97854 0.97854,1.34972 1.38345,2.73317 1.34972,-0.53989 3.03687,-1.11351 4.35284,0 0.50614,-0.53989 1.38345,-3.61049 2.73317,-2.29452 1.07978,1.07978 -1.8896,3.61049 1.75463,3.30681 0.16872,0.7086 -0.0338,1.34971 -0.53988,1.78837 0.7086,0.2362 1.51843,0.10123 2.09205,-0.2362 0.0338,0.40491 0.43867,0.77609 0.43867,1.21474 1.07976,0.10124 1.38345,-0.9448 2.46323,-0.84357 -0.37118,0.53989 -0.94481,1.14726 -1.21475,1.75463 1.21475,1.21474 1.82212,-0.30368 2.73317,-0.94479 0.7086,-0.53989 2.42949,-1.61967 2.02458,0.67485 0.7086,-0.13497 1.07977,-0.7086 1.78837,-0.84357 0.53989,1.51843 -1.6534,2.19328 -0.50615,3.40803 0.70861,-0.50614 1.21475,-1.48469 2.09207,-1.48469 -0.2362,0.84358 -1.24849,1.34972 -1.21475,2.46323 1.07978,0.16872 1.88961,-1.01228 2.5982,-1.78837 0.43866,0.16872 0.67486,0.40491 0.84358,0.84357 -0.67486,0.50615 -0.37118,0.67486 -0.53989,1.28223 0.67486,0.43866 1.4172,0.50615 1.82211,-0.26994 l 0.3037,-0.80983 V 238.0218 l -16.19659,-81.894 v -37.69081 c 0,0 -219.56502,3.44178 -254.3539,3.00311 -107.80856,-1.24848 -261.541138,-8.23326 -261.541138,-8.23326 l -2.024587,38.43316 185.585925,6.34366 -3.00315,148.30001 1.41718,0.30368 z"
       inkscape:connector-curvature="0"
       style="fill:#000000;fill-opacity:0.10582012;stroke:#000000;stroke-width:6;stroke-miterlimit:4;stroke-opacity:1;stroke-dasharray:none" />
  </g>
</svg>
